<svg width="40" height="46" viewBox="0 0 40 46" fill="none" xmlns="http://www.w3.org/2000/svg">
<g clip-path="url(#clip0_95_18)">
<path d="M20.0273 11.7393L29.3369 17.353L20.0273 22.6741L10.2971 17.353L20.0273 11.7393Z" fill="url(#paint0_linear_95_18)"/>
<path d="M10.2971 17.5542L20.0273 22.8571L19.9725 33.6822L10.2971 28.5622V17.5542Z" fill="url(#paint1_linear_95_18)"/>
<path d="M20.0273 22.8571L29.4466 17.5542L29.721 28.5622L20.1554 33.8833L20.0273 22.8571Z" fill="url(#paint2_linear_95_18)"/>
<path d="M39.3782 11.0629L39.2319 10.9714L29.9406 5.65029L20.2104 0.0731429L20.0824 0L19.9726 0.0548571C19.7899 0.120116 19.6125 0.199597 19.4422 0.292571L10.9557 5.248L0.457316 11.392C0.0183587 11.5931 0.0366486 12.0503 0.0366486 12.3246V12.5257L0.0183587 28.1051L6.88556e-05 33.8834C-0.018221 34.2309 0.128098 34.5417 0.384157 34.6514L12.4555 41.5086L19.5885 45.568C19.7349 45.6594 19.8995 45.7143 20.0458 45.7143C20.171 45.7199 20.2941 45.681 20.3933 45.6046L30.7088 39.6617L39.4879 34.6149C39.8172 34.4686 40.0184 34.1394 39.9635 33.8286L40.0001 11.9406C40.0549 11.4286 39.6343 11.1909 39.3782 11.0629ZM20.0092 12.4526L28.514 17.3897L20.0275 22.272L17.1377 20.6446L11.4313 17.408L20.0092 12.4526ZM29.6663 16.7131L20.4482 11.3554C20.3269 11.2662 20.181 11.2165 20.0304 11.2132C19.8798 11.21 19.7319 11.2532 19.6068 11.3371L10.279 16.7497L1.79248 11.9406L7.7184 8.48457L20.0275 1.29829L31.3489 7.78972L38.2625 11.7577L29.6663 16.7131ZM1.2072 12.9463L9.65713 17.7371L9.82174 28.2697C9.80345 28.5989 9.96806 28.8914 10.2241 29.0194L15.8391 32.2377L19.4422 34.304V44.16L1.17062 33.7737L1.2072 12.9463ZM10.8277 18.3954L19.4605 23.2777L19.4422 32.9691L10.9923 28.1234L10.8277 18.3954ZM20.6128 34.3223L24.2159 32.2377L29.776 29.056L29.8309 29.0194C29.9406 28.9646 30.0687 28.8731 30.1601 28.7451L30.215 28.672V28.5806L30.1967 21.5954V17.7554L38.8295 12.7634V21.2663L38.8112 33.664L27.2337 40.32L20.5945 44.1417L20.6128 34.3223ZM20.6128 32.9874V23.2777L29.1176 18.3771V28.1051L20.6128 32.9874Z" fill="#FEFBFB"/>
<path d="M19.7716 2.43185C19.5155 2.46842 19.296 2.63299 19.1863 2.85242C19.0765 3.10842 19.0948 3.3827 19.2229 3.56556C19.3692 3.78499 19.6069 3.91299 19.8813 3.91299C19.9304 3.90959 19.9792 3.90349 20.0276 3.8947C20.3385 3.85813 20.5763 3.6387 20.6312 3.36442C20.6692 3.24454 20.674 3.1166 20.645 2.99423C20.616 2.87186 20.5543 2.75965 20.4666 2.66956C20.3808 2.57366 20.2719 2.50143 20.1502 2.4598C20.0285 2.41816 19.8981 2.40854 19.7716 2.43185ZM20.2654 5.63185C19.991 5.48556 19.6801 5.50385 19.4606 5.65013C19.2594 5.75985 19.1314 5.97927 19.0948 6.21699C19.0765 6.47299 19.1863 6.69242 19.3326 6.82042C19.4032 6.88756 19.4864 6.93994 19.5775 6.97448C19.6686 7.00902 19.7657 7.02503 19.863 7.02156C19.9766 7.01964 20.0885 6.99476 20.1922 6.94842C20.4849 6.8387 20.6495 6.56442 20.6495 6.29013C20.6678 6.03413 20.5032 5.77813 20.2654 5.63185ZM20.2837 8.77699C20.0276 8.61242 19.7167 8.61242 19.4789 8.74042C19.2594 8.85013 19.1131 9.06956 19.0948 9.32556C19.0765 9.58156 19.1863 9.85585 19.3875 9.98385C19.5247 10.0853 19.6925 10.1369 19.863 10.1301C19.9766 10.1282 20.0885 10.1033 20.1922 10.057C20.3166 10.0073 20.4244 9.92358 20.5034 9.81546C20.5824 9.70734 20.6294 9.57917 20.6389 9.44562C20.6484 9.31207 20.6202 9.17853 20.5574 9.06028C20.4945 8.94204 20.3997 8.84386 20.2837 8.77699ZM7.86483 29.2753C7.59048 29.3484 7.3893 29.5678 7.33443 29.8421C7.27956 30.1347 7.37101 30.409 7.57219 30.5736C7.69897 30.6831 7.8619 30.7418 8.02944 30.7381C8.08484 30.7384 8.14008 30.7323 8.19405 30.7198C8.43182 30.665 8.63301 30.5004 8.70617 30.2993C8.8342 30.0433 8.79762 29.7324 8.57814 29.4947C8.49385 29.3922 8.3813 29.3168 8.25448 29.2778C8.12765 29.2388 7.99215 29.2379 7.86483 29.2753ZM31.4954 30.7564C31.5578 30.7532 31.6194 30.7409 31.6783 30.7198C31.916 30.665 32.1172 30.5004 32.1721 30.3176C32.3001 30.0433 32.2453 29.7141 32.0441 29.4764C31.9519 29.3741 31.832 29.3006 31.6989 29.2649C31.5658 29.2292 31.4253 29.2328 31.2942 29.2753C31.0381 29.3484 30.8369 29.5678 30.7821 29.8421C30.7272 30.1347 30.8369 30.409 31.0381 30.5736C31.1479 30.7016 31.3125 30.7564 31.4954 30.7564ZM5.19451 30.8478C4.92016 30.9393 4.73726 31.1953 4.71897 31.4878C4.68239 31.7987 4.82871 32.0913 5.06648 32.2193C5.17577 32.2893 5.30249 32.3273 5.43228 32.329C5.5399 32.3267 5.64583 32.3017 5.7432 32.2558C5.98097 32.1461 6.14558 31.9267 6.16387 31.7256C6.21874 31.4513 6.109 31.1587 5.88952 30.9758C5.79783 30.8907 5.68374 30.8334 5.56065 30.8107C5.43755 30.7881 5.31054 30.8009 5.19451 30.8478ZM34.0925 32.3107C34.1794 32.3142 34.2662 32.3018 34.3486 32.2741C34.6047 32.1827 34.7876 31.9633 34.8059 31.7438C34.879 31.4696 34.8059 31.1953 34.5864 30.9941C34.491 30.9027 34.3714 30.8404 34.2419 30.8145C34.1123 30.7886 33.978 30.8002 33.8548 30.8478C33.7313 30.8989 33.6229 30.9805 33.5398 31.085C33.4566 31.1895 33.4014 31.3135 33.3795 31.4452C33.3575 31.577 33.3695 31.7121 33.4142 31.8379C33.459 31.9638 33.5351 32.0761 33.6353 32.1644C33.7669 32.2632 33.928 32.3148 34.0925 32.3107ZM3.18262 32.4753C2.96314 32.3473 2.68879 32.3473 2.4876 32.4753C2.24983 32.6033 2.10352 32.841 2.10352 33.1336C2.10352 33.4261 2.24983 33.6821 2.4876 33.7918C2.58703 33.8516 2.70082 33.8832 2.81682 33.8833C2.95863 33.8855 3.09815 33.8474 3.2192 33.7736C3.45697 33.609 3.585 33.3347 3.56671 33.097C3.56671 32.841 3.42039 32.6033 3.18262 32.457V32.4753ZM36.269 33.7187C36.3902 33.8255 36.5464 33.8841 36.708 33.8833C36.8022 33.8833 36.8954 33.8646 36.9823 33.8284C37.2384 33.7187 37.4213 33.4627 37.4396 33.2433C37.4945 32.9507 37.3664 32.6581 37.1104 32.4936C36.8726 32.329 36.58 32.329 36.3605 32.4753C36.2533 32.541 36.1638 32.6321 36.1 32.7405C36.0363 32.8489 36.0001 32.9713 35.9947 33.097C35.9764 33.353 36.0861 33.5907 36.269 33.7187Z" fill="#FEFBFB"/>
</g>
<defs>
<linearGradient id="paint0_linear_95_18" x1="28.1809" y1="12.1298" x2="20.0281" y2="26.9577" gradientUnits="userSpaceOnUse">
<stop offset="0.0001" stop-color="#00A3FF"/>
<stop offset="1" stop-color="#0054C6"/>
</linearGradient>
<linearGradient id="paint1_linear_95_18" x1="19.4366" y1="18.1302" x2="6.58991" y2="26.2259" gradientUnits="userSpaceOnUse">
<stop offset="0.0001" stop-color="#00A3FF"/>
<stop offset="1" stop-color="#0054C6"/>
</linearGradient>
<linearGradient id="paint2_linear_95_18" x1="29.1324" y1="18.1374" x2="16.2173" y2="26.1458" gradientUnits="userSpaceOnUse">
<stop offset="0.0001" stop-color="#00A3FF"/>
<stop offset="1" stop-color="#0054C6"/>
</linearGradient>
<clipPath id="clip0_95_18">
<rect width="40" height="45.7143" fill="white"/>
</clipPath>
</defs>
</svg>
